<?xml version="1.0" standalone="no"?>
<!DOCTYPE svg PUBLIC "-//W3C//DTD SVG 20010904//EN"
 "http://www.w3.org/TR/2001/REC-SVG-20010904/DTD/svg10.dtd">
<svg version="1.0" xmlns="http://www.w3.org/2000/svg"
 width="32.000000pt" height="32.000000pt" viewBox="0 0 32.000000 32.000000"
 preserveAspectRatio="xMidYMid meet">
<metadata>
Created by potrace 1.16, written by Peter Selinger 2001-2019
</metadata>
<g transform="translate(0.000000,32.000000) scale(0.100000,-0.100000)"
fill="#fff" stroke="none">
<path d="M58 289 l-58 -29 0 -85 0 -85 62 -31 c51 -26 67 -30 88 -22 22 8 29
6 43 -14 23 -29 86 -32 110 -5 34 37 12 122 -31 122 -8 0 -12 21 -12 59 l0 60
-60 30 c-33 17 -66 31 -73 31 -7 -1 -38 -14 -69 -31z"/>
</g>
</svg>
