<?xml version="1.0" encoding="UTF-8"?>
<svg version="1.1" xmlns="http://www.w3.org/2000/svg" width="50" height="50">
<path d="M0 0 C3.40895248 1.37698988 6.07085899 3.43079409 8.89453125 5.73046875 C10.03984043 6.64258563 11.18567322 7.55404543 12.33203125 8.46484375 C13.16154297 9.1290332 13.16154297 9.1290332 14.0078125 9.80664062 C16.68780774 11.91140115 19.48586814 13.85283547 22.2890625 15.7890625 C22.71574219 16.20285156 23.14242187 16.61664062 23.58203125 17.04296875 C23.58203125 18.03296875 23.58203125 19.02296875 23.58203125 20.04296875 C22.59203125 20.04296875 21.60203125 20.04296875 20.58203125 20.04296875 C20.58203125 28.62296875 20.58203125 37.20296875 20.58203125 46.04296875 C6.72203125 46.04296875 -7.13796875 46.04296875 -21.41796875 46.04296875 C-21.41796875 37.46296875 -21.41796875 28.88296875 -21.41796875 20.04296875 C-22.40796875 20.04296875 -23.39796875 20.04296875 -24.41796875 20.04296875 C-24.41796875 19.05296875 -24.41796875 18.06296875 -24.41796875 17.04296875 C-22.93676758 15.57250977 -22.93676758 15.57250977 -20.875 14.046875 C-20.13056641 13.48806641 -19.38613281 12.92925781 -18.61914062 12.35351562 C-17.83087891 11.77666016 -17.04261719 11.19980469 -16.23046875 10.60546875 C-14.69504262 9.46129957 -13.1598799 8.31677683 -11.625 7.171875 C-10.8923291 6.63578613 -10.1596582 6.09969727 -9.40478516 5.54736328 C-7.23600528 3.95013604 -7.23600528 3.95013604 -4.6796875 1.5703125 C-2.41796875 0.04296875 -2.41796875 0.04296875 0 0 Z M-10.16796875 14.04296875 C-12.23238949 17.34604194 -11.09306478 20.29925441 -10.41796875 24.04296875 C-10.08796875 24.04296875 -9.75796875 24.04296875 -9.41796875 24.04296875 C-9.41796875 21.07296875 -9.41796875 18.10296875 -9.41796875 15.04296875 C-8.09796875 15.04296875 -6.77796875 15.04296875 -5.41796875 15.04296875 C-5.41796875 14.38296875 -5.41796875 13.72296875 -5.41796875 13.04296875 C-8.31977459 12.79489928 -8.31977459 12.79489928 -10.16796875 14.04296875 Z M-1.41796875 13.04296875 C-1.41796875 13.70296875 -1.41796875 14.36296875 -1.41796875 15.04296875 C-0.09796875 15.04296875 1.22203125 15.04296875 2.58203125 15.04296875 C2.58203125 18.01296875 2.58203125 20.98296875 2.58203125 24.04296875 C5.14890492 20.19265825 4.41491849 18.45727112 3.58203125 14.04296875 C1.93203125 13.71296875 0.28203125 13.38296875 -1.41796875 13.04296875 Z M-6.41796875 27.04296875 C-5.42796875 27.53796875 -5.42796875 27.53796875 -4.41796875 28.04296875 C-4.00390625 30.109375 -4.00390625 30.109375 -3.79296875 32.60546875 C-3.71820312 33.43175781 -3.6434375 34.25804687 -3.56640625 35.109375 C-3.49292969 36.06650391 -3.49292969 36.06650391 -3.41796875 37.04296875 C-3.08796875 37.04296875 -2.75796875 37.04296875 -2.41796875 37.04296875 C-2.41796875 34.07296875 -2.41796875 31.10296875 -2.41796875 28.04296875 C-1.75796875 27.71296875 -1.09796875 27.38296875 -0.41796875 27.04296875 C-2.39796875 27.04296875 -4.37796875 27.04296875 -6.41796875 27.04296875 Z M6.58203125 27.04296875 C5.42365499 31.09728567 5.74511868 33.26108994 7.58203125 37.04296875 C9.75075015 34.85396289 9.75075015 34.85396289 11.58203125 32.04296875 C11.45053299 29.29172622 11.45053299 29.29172622 10.58203125 27.04296875 C9.26203125 27.04296875 7.94203125 27.04296875 6.58203125 27.04296875 Z M-0.41796875 39.04296875 C-0.41796875 39.37296875 -0.41796875 39.70296875 -0.41796875 40.04296875 C1.56203125 40.04296875 3.54203125 40.04296875 5.58203125 40.04296875 C5.58203125 39.71296875 5.58203125 39.38296875 5.58203125 39.04296875 C3.60203125 39.04296875 1.62203125 39.04296875 -0.41796875 39.04296875 Z " fill="#fff" transform="translate(25.41796875,0.95703125)"/>
<path d="M0 0 C1.32 0 2.64 0 4 0 C4 1.32 4 2.64 4 4 C2.68 4 1.36 4 0 4 C0 2.68 0 1.36 0 0 Z " fill="#fff" transform="translate(32,29)"/>
</svg>
