<?xml version="1.0" standalone="no"?>
<!DOCTYPE svg PUBLIC "-//W3C//DTD SVG 20010904//EN"
 "http://www.w3.org/TR/2001/REC-SVG-20010904/DTD/svg10.dtd">
<svg version="1.0" xmlns="http://www.w3.org/2000/svg"
 width="512.000000pt" height="512.000000pt" viewBox="0 0 512.000000 512.000000"
 preserveAspectRatio="xMidYMid meet">
<metadata>
Created by potrace 1.16, written by Peter Selinger 2001-2019
</metadata>
<g transform="translate(0.000000,512.000000) scale(0.100000,-0.100000)"
fill="#fff" stroke="none">
<path d="M3352 4300 c-205 -55 -344 -197 -384 -392 l-12 -57 -50 -5 c-28 -3
-148 -10 -266 -16 -427 -22 -651 -64 -666 -125 -3 -12 6 -103 20 -201 47 -331
57 -428 63 -629 6 -226 -4 -359 -43 -533 -51 -227 -159 -488 -310 -748 -35
-61 -64 -118 -64 -127 0 -33 236 -197 440 -306 446 -239 861 -361 1230 -361
151 0 251 12 369 46 89 25 267 108 311 144 l25 21 -30 -4 c-16 -2 -75 -13
-130 -23 -136 -24 -437 -25 -589 -1 -394 62 -775 202 -1194 439 -138 78 -161
102 -140 145 7 15 25 32 39 37 23 8 48 -3 196 -87 449 -256 802 -381 1183
-418 230 -22 501 4 744 72 100 27 113 33 145 71 159 185 309 445 406 703 19
52 35 101 35 109 0 11 -23 2 -82 -30 -131 -72 -297 -150 -372 -174 -62 -20
-82 -22 -180 -17 -337 19 -985 127 -1581 263 -204 47 -243 59 -262 80 -13 14
-23 31 -23 38 0 21 40 66 58 66 9 0 122 -24 251 -54 549 -127 1088 -219 1502
-257 133 -12 138 -12 210 11 41 13 177 75 303 139 170 86 230 121 237 139 16
41 49 219 55 296 l7 74 -31 16 c-179 92 -938 81 -2206 -34 -120 -11 -227 -20
-237 -20 -52 0 -80 86 -36 114 35 23 1015 122 1447 147 257 14 668 7 806 -15
92 -15 203 -42 247 -61 16 -7 17 2 17 111 0 324 -102 640 -279 869 -26 33 -59
81 -74 108 -80 136 -275 289 -470 367 -154 61 -249 81 -412 86 -127 4 -161 1
-223 -16z m378 -232 c68 -13 183 -53 230 -81 48 -28 120 -86 120 -97 0 -5 -79
-6 -177 -3 -98 3 -290 0 -427 -6 -136 -7 -250 -10 -253 -7 -10 10 39 96 70
122 97 82 251 107 437 72z m-1434 -2252 c454 -181 886 -308 1199 -352 154 -22
384 -22 483 -1 41 9 105 31 143 48 59 27 73 30 94 21 36 -17 50 -58 30 -88
-22 -34 -103 -72 -214 -101 -85 -23 -116 -26 -271 -26 -239 -1 -433 30 -756
118 -262 72 -843 281 -921 331 -45 28 -20 114 32 114 12 0 94 -29 181 -64z"/>
<path d="M603 3790 c-39 -10 -86 -26 -104 -35 -59 -31 -125 -103 -155 -168
-25 -54 -29 -77 -32 -178 -5 -135 11 -230 65 -384 86 -246 236 -509 449 -785
107 -138 377 -413 492 -499 75 -57 81 -64 71 -83 -10 -19 -8 -25 17 -46 45
-37 87 -62 106 -62 39 0 240 394 313 612 129 387 133 712 21 1443 l-21 140
-45 3 c-25 2 -63 1 -86 -3 l-41 -6 8 -42 c4 -23 8 -56 9 -74 l0 -31 -87 34
c-392 155 -773 218 -980 164z m507 -264 c135 -31 258 -72 446 -147 l151 -60
12 -107 c20 -166 26 -485 12 -599 -24 -192 -74 -363 -173 -595 l-50 -118 -28
20 c-53 38 -186 163 -279 264 -371 401 -630 857 -634 1116 -2 128 50 204 165
243 72 24 236 17 378 -17z"/>
</g>
</svg>
