<?xml version="1.0" standalone="no"?>
<!DOCTYPE svg PUBLIC "-//W3C//DTD SVG 20010904//EN"
 "http://www.w3.org/TR/2001/REC-SVG-20010904/DTD/svg10.dtd">
<svg version="1.0" xmlns="http://www.w3.org/2000/svg"
 width="512.000000pt" height="512.000000pt" viewBox="0 0 512.000000 512.000000"
 preserveAspectRatio="xMidYMid meet">
<metadata>
Created by potrace 1.16, written by Peter Selinger 2001-2019
</metadata>
<g transform="translate(0.000000,512.000000) scale(0.100000,-0.100000)"
fill="#fff" stroke="none">
<path d="M1196 5101 c-15 -10 -37 -32 -47 -47 -18 -27 -19 -53 -19 -364 0
-311 1 -337 19 -364 10 -15 32 -37 47 -47 28 -18 65 -19 963 -19 905 0 935 1
965 19 17 11 40 35 51 53 19 31 20 51 20 358 0 307 -1 327 -20 358 -11 18 -34
42 -51 53 -30 18 -60 19 -965 19 -898 0 -935 -1 -963 -19z"/>
<path d="M1370 3870 c0 -112 -15 -182 -47 -220 -16 -20 -114 -75 -291 -164
-204 -103 -278 -145 -315 -180 -100 -96 -147 -209 -147 -352 l0 -84 1596 0
1596 0 -7 88 c-13 156 -57 256 -152 348 -37 35 -111 77 -315 180 -336 169
-322 154 -326 341 l-4 133 -794 0 -794 0 0 -90z"/>
<path d="M570 1840 l0 -730 1338 0 1338 0 224 226 c123 124 238 237 257 251
l33 25 0 479 0 479 -1595 0 -1595 0 0 -730z m1667 440 c50 -30 66 -71 71 -186
l5 -101 101 -5 c115 -5 156 -21 186 -71 25 -40 26 -109 3 -149 -32 -54 -74
-71 -188 -76 l-102 -5 -5 -101 c-3 -77 -9 -110 -24 -135 -55 -93 -185 -96
-245 -5 -15 24 -19 48 -19 135 l0 106 -108 5 c-83 3 -115 9 -141 24 -94 55
-95 189 -2 247 28 17 55 21 143 25 l108 5 0 106 c0 117 11 145 66 182 38 25
109 25 151 -1z"/>
<path d="M4023 1426 c-71 -23 -132 -69 -258 -196 l-120 -120 288 -288 288
-287 133 135 c175 178 191 209 191 370 0 107 -2 119 -29 175 -38 77 -114 153
-191 190 -52 26 -72 30 -160 32 -64 2 -115 -2 -142 -11z"/>
<path d="M3313 768 c-172 -176 -188 -208 -188 -368 0 -107 2 -119 29 -175 17
-33 53 -83 80 -111 28 -27 78 -63 111 -80 56 -27 68 -29 175 -29 161 0 192 16
370 191 l135 133 -285 286 c-157 157 -287 285 -291 285 -3 0 -64 -60 -136
-132z"/>
<path d="M572 578 l3 -233 37 -78 c50 -103 122 -175 225 -225 l78 -37 1016 -3
1017 -2 -44 86 c-23 47 -50 117 -58 154 -20 86 -20 236 -1 317 16 69 62 177
95 223 l21 30 -1196 0 -1196 0 3 -232z"/>
</g>
</svg>
