<?xml version="1.0" encoding="UTF-8"?>
<svg version="1.1" xmlns="http://www.w3.org/2000/svg" width="30" height="30">
<path d="M0 0 C7.26 0 14.52 0 22 0 C22 7.26 22 14.52 22 22 C14.74 22 7.48 22 0 22 C0 14.66666667 0 7.33333333 0 0 Z M9 3 C8.67 4.98 8.34 6.96 8 9 C9.485 9.99 9.485 9.99 11 11 C11 8.36 11 5.72 11 3 C10.34 3 9.68 3 9 3 Z M7 9 C8 12 8 12 8 12 Z M4 10 C5 12 5 12 5 12 Z M15 10 C14.67 10.66 14.34 11.32 14 12 C15.65 12 17.3 12 19 12 C19 11.34 19 10.68 19 10 C17.68 10 16.36 10 15 10 Z M11 11 C11 13.64 11 16.28 11 19 C11.66 19 12.32 19 13 19 C13.33 17.02 13.66 15.04 14 13 C13.01 12.34 12.02 11.68 11 11 Z M6 12 C5.67 12.99 5.34 13.98 5 15 C5.66 15 6.32 15 7 15 C6.67 14.01 6.34 13.02 6 12 Z " fill="#fff" transform="translate(4,4)"/>
</svg>
