<?xml version="1.0" standalone="no"?>
<!DOCTYPE svg PUBLIC "-//W3C//DTD SVG 20010904//EN"
 "http://www.w3.org/TR/2001/REC-SVG-20010904/DTD/svg10.dtd">
<svg version="1.0" xmlns="http://www.w3.org/2000/svg"
 width="512.000000pt" height="512.000000pt" viewBox="0 0 512.000000 512.000000"
 preserveAspectRatio="xMidYMid meet">
<metadata>
Created by potrace 1.16, written by Peter Selinger 2001-2019
</metadata>
<g transform="translate(0.000000,512.000000) scale(0.100000,-0.100000)"
fill="#fff" stroke="none">
<path d="M1590 4205 l0 -915 970 0 970 0 0 915 0 915 -230 0 -230 0 0 -373 c0
-321 -2 -376 -16 -395 -8 -12 -24 -22 -35 -22 -10 0 -118 50 -239 110 l-220
110 -220 -110 c-121 -60 -229 -110 -239 -110 -11 0 -27 10 -35 22 -14 19 -16
74 -16 395 l0 373 -230 0 -230 0 0 -915z"/>
<path d="M2160 4795 c0 -179 2 -325 5 -325 3 0 93 44 200 97 l195 98 195 -98
c107 -53 197 -97 200 -97 3 0 5 146 5 325 l0 325 -400 0 -400 0 0 -325z"/>
<path d="M340 2275 l0 -915 970 0 970 0 0 915 0 915 -230 0 -230 0 0 -364 c0
-207 -4 -376 -10 -390 -21 -57 -33 -54 -270 64 -121 61 -227 110 -235 110 -9
0 -113 -49 -233 -109 -224 -112 -238 -116 -264 -77 -4 6 -8 181 -8 389 l0 377
-230 0 -230 0 0 -915z"/>
<path d="M910 2860 l0 -330 200 100 199 100 201 -100 200 -100 0 330 0 330
-400 0 -400 0 0 -330z"/>
<path d="M2840 2275 l0 -915 970 0 970 0 0 915 0 915 -230 0 -230 0 0 -377 c0
-208 -4 -383 -8 -389 -26 -39 -40 -35 -264 77 -120 60 -224 109 -233 109 -8 0
-114 -49 -235 -110 -237 -118 -249 -121 -270 -64 -6 14 -10 183 -10 390 l0
364 -230 0 -230 0 0 -915z"/>
<path d="M3410 2860 l0 -330 200 100 201 100 199 -100 200 -100 0 330 0 330
-400 0 -400 0 0 -330z"/>
<path d="M0 1085 l0 -175 2560 0 2560 0 0 175 0 175 -2560 0 -2560 0 0 -175z"/>
<path d="M0 625 l0 -175 2560 0 2560 0 0 175 0 175 -2560 0 -2560 0 0 -175z"/>
<path d="M560 175 l0 -175 180 0 180 0 -2 173 -3 172 -177 3 -178 2 0 -175z"/>
<path d="M4207 343 c-4 -3 -7 -82 -7 -175 l0 -168 180 0 180 0 0 175 0 175
-173 0 c-96 0 -177 -3 -180 -7z"/>
</g>
</svg>
